#!OML:ASF Y:\EmotionMaleHayes\Project 1\Capture day 1\Session 1\Male1.ASF
:FULLY-SPECIFIED
:DEGREES
1
root -28.9704 17.2122 -0.435629 29.9713 85.0681 28.1072
lowerback 5.44789 2.24482 -3.89001
upperback 0.530307 2.74951 -0.916373
thorax -2.64361 1.41518 1.02154
lowerneck -23.2968 2.21115 2.78822
upperneck 25.7796 2.42404 -0.342463
head 12.464 1.38937 -0.159372
rclavicle 1.74931e-014 -1.68967e-014
rhumerus -35.2279 4.66222 -89.1751
rradius 34.5737
rwrist -0.645062
rhand -10.9172 -31.0358
rfingers 7.12502
rthumb 15.1003 -60.465
lclavicle 1.74931e-014 -1.68967e-014
lhumerus -35.2141 -8.87094 90.2233
lradius 36.2819
lwrist -15.7718
lhand -16.2169 -22.8899
lfingers 7.12502
lthumb 9.99086 6.85294
rfemur 9.55655 -3.89065 11.7784
rtibia 1.60156
rfoot -16.402 -9.39284
rtoes 14.4142
lfemur 11.8843 -2.10273 -15.2295
ltibia -2.22278
lfoot -14.8142 20.0948
ltoes -5.1831
2
root -28.9702 17.2108 -0.437847 35.7504 85.2553 33.9067
lowerback 5.41633 2.09634 -4.23523
upperback 0.583857 2.53544 -0.939598
thorax -2.57425 1.31119 1.21005
lowerneck -23.2575 2.24782 2.66898
upperneck 25.6889 2.49549 -0.263805
head 12.4183 1.41875 -0.0982602
rclavicle 1.35049e-014 -1.04362e-014
rhumerus -35.0776 4.80488 -89.1509
rradius 34.4805
rwrist -0.518228
rhand -10.8081 -30.9549
rfingers 7.12502
rthumb 15.2053 -60.3762
lclavicle 1.35049e-014 -1.04362e-014
lhumerus -35.17 -8.8003 90.2058
lradius 36.4203
lwrist -15.672
lhand -5.227 -22.9075
lfingers 7.12502
lthumb 20.5753 6.02209
rfemur 9.72077 -4.28777 11.3054
rtibia 1.46847
rfoot -16.3091 -9.74887
rtoes 11.8618
lfemur 11.5936 -1.64972 -15.3556
ltibia -1.87052
lfoot -14.491 19.3009
ltoes -6.19757
3
root -28.9622 17.2172 -0.440321 40.0021 85.5898 38.3628
lowerback 5.61964 1.93924 -4.28675
upperback 0.62114 2.31453 -0.927141
thorax -2.6402 1.20281 1.26332
lowerneck -23.1888 2.26356 2.63108
upperneck 25.6581 2.52296 -0.225192
head 12.3917 1.43281 -0.0734153
rclavicle -1.33683e-014 1.89839e-014
rhumerus -35.1369 4.87626 -89.1532
rradius 34.4617
rwrist -0.50541
rhand -10.6268 -30.8839
rfingers 7.12502
rthumb 15.38 -60.2919
lclavicle -1.33683e-014 1.89839e-014
lhumerus -35.2463 -8.8093 90.1839
lradius 36.4269
lwrist -15.5368
lhand -5.27997 -23.1257
lfingers 7.12502
lthumb 20.5244 5.80938
rfemur 10.2134 -4.46678 11.1819
rtibia 1.20321
rfoot -16.3345 -10.0204
rtoes 11.509
lfemur 11.7457 -2.04424 -15.5226
ltibia -1.87839
lfoot -14.4137 19.268
ltoes -5.85027
4
root -28.9672 17.2095 -0.43928 35.6381 85.1705 33.7561
lowerback 5.29069 2.09623 -4.3697
upperback 0.626446 2.53711 -0.86669
thorax -2.46917 1.31126 1.36565
lowerneck -23.2524 2.29254 2.59504
upperneck 25.598 2.57803 -0.247421
head 12.3809 1.44853 -0.0663222
rclavicle -1.52567e-014 1.02374e-014
rhumerus -34.9774 5.04038 -89.1615
rradius 34.4263
rwrist -0.5236
rhand -10.5742 -30.9199
rfingers 7.12502
rthumb 15.4307 -60.3239
lclavicle -1.52567e-014 1.02374e-014
lhumerus -35.127 -8.57565 90.0816
lradius 36.3856
lwrist -15.6258
lhand -6.77311 -23.0089
lfingers 7.12502
lthumb 19.089 6.07433
rfemur 9.6557 -4.32991 11.2458
rtibia 1.50118
rfoot -16.2198 -9.68771
rtoes 11.6261
lfemur 11.6892 -2.07707 -15.5935
ltibia -2.09441
lfoot -14.6553 19.7956
ltoes -4.99019
5
root -28.9635 17.2084 -0.440451 36.9748 85.3869 35.0883
lowerback 5.30876 2.00812 -4.37304
upperback 0.616702 2.41922 -0.799143
thorax -2.48569 1.25299 1.44555
lowerneck -23.3459 2.30555 2.5821
upperneck 25.6837 2.62001 -0.311979
head 12.4348 1.45699 -0.0797296
rclavicle -8.69683e-016 5.56597e-015
rhumerus -34.9901 5.23564 -89.1718
rradius 34.4241
rwrist -0.537934
rhand -10.836 -30.599
rfingers 7.12502
rthumb 15.1785 -60.0223
lclavicle -8.69683e-016 5.56597e-015
lhumerus -35.1404 -7.92812 89.8751
lradius 36.0731
lwrist -17.1014
lhand -7.5427 -23.6957
lfingers 7.12502
lthumb 18.3488 5.45892
rfemur 9.81711 -4.24374 11.3424
rtibia 1.32668
rfoot -16.3361 -9.83678
rtoes 12.5623
lfemur 11.5948 -2.13348 -15.5157
ltibia -1.96886
lfoot -14.7308 19.5497
ltoes -4.60373
6
root -28.9618 17.2108 -0.441904 36.517 85.5197 34.7202
lowerback 5.43817 1.97838 -4.24436
upperback 0.628039 2.38117 -0.76267
thorax -2.54049 1.23359 1.41007
lowerneck -23.3846 2.30762 2.61852
upperneck 25.7092 2.63443 -0.397853
head 12.4547 1.45495 -0.115414
rclavicle 9.61e-015 -1.54058e-014
rhumerus -34.9796 5.22214 -89.1571
rradius 34.4116
rwrist -0.426458
rhand -11.1675 -30.0549
rfingers 7.12502
rthumb 14.8591 -59.5021
lclavicle 9.61e-015 -1.54058e-014
lhumerus -29.6713 -11.2926 90.8285
lradius 24.9854
lwrist -16.3354
lhand -13.9377 -27.6105
lfingers 7.12502
lthumb 12.1892 2.01437
rfemur 9.97422 -4.26119 11.4611
rtibia 1.28024
rfoot -16.4177 -9.76916
rtoes 13.123
lfemur 11.5927 -1.89792 -15.2943
ltibia -1.76452
lfoot -14.6975 19.201
ltoes -4.73464
7
root -28.9629 17.2085 -0.441567 35.725 85.4701 33.8539
lowerback 5.41314 1.99799 -4.26395
upperback 0.585864 2.40615 -0.728992
thorax -2.57377 1.24713 1.45357
lowerneck -23.4002 2.31578 2.63897
upperneck 25.7288 2.65371 -0.448152
head 12.4671 1.4586 -0.13432
rclavicle -1.36105e-014 5.46658e-015
rhumerus -34.9762 5.21497 -89.1486
rradius 34.4475
rwrist -0.295231
rhand -11.4055 -29.707
rfingers 7.12502
rthumb 14.6299 -59.171
lclavicle -1.36105e-014 5.46658e-015
lhumerus -29.3559 -10.976 90.6946
lradius 25.2798
lwrist -14.2882
lhand -10.412 -26.0382
lfingers 7.12502
lthumb 15.5868 3.35378
rfemur 9.8446 -4.2345 11.503
rtibia 1.32077
rfoot -16.4601 -9.82479
rtoes 12.6281
lfemur 11.4579 -1.56611 -15.1501
ltibia -1.63014
lfoot -14.6259 18.9864
ltoes -5.05652
8
root -28.9659 17.2083 -0.441281 33.5332 85.3054 31.6639
lowerback 5.4665 2.07638 -4.27354
upperback 0.571812 2.50712 -0.689918
thorax -2.62621 1.29851 1.48858
lowerneck -23.4835 2.3441 2.67792
upperneck 25.8467 2.69064 -0.480754
head 12.5325 1.47507 -0.144946
rclavicle 2.48481e-016 1.88845e-015
rhumerus -34.9862 5.24661 -89.1662
rradius 34.4404
rwrist -0.207251
rhand -11.3541 -29.8616
rfingers 7.12502
rthumb 14.6794 -59.322
lclavicle 2.48481e-016 1.88845e-015
lhumerus -29.2375 -10.8341 90.6434
lradius 25.3315
lwrist -13.6066
lhand -9.28346 -25.386
lfingers 7.12502
lthumb 16.6736 3.91785
rfemur 9.70498 -4.1995 11.5541
rtibia 1.46375
rfoot -16.4273 -9.71597
rtoes 12.3155
lfemur 11.5906 -1.73457 -15.1943
ltibia -1.81852
lfoot -14.7518 19.3629
ltoes -4.87344
9
root -28.9589 17.2068 -0.442606 35.9988 85.5959 34.1699
lowerback 5.38534 1.9574 -4.26015
upperback 0.645441 2.35716 -0.669011
thorax -2.49618 1.22088 1.51949
lowerneck -23.5453 2.3748 2.74396
upperneck 25.874 2.73745 -0.579176
head 12.5593 1.4882 -0.184558
rclavicle 2.25621e-014 -2.00276e-014
rhumerus -34.9088 5.18583 -89.1231
rradius 34.3137
rwrist -0.139917
rhand -11.0474 -30.2918
rfingers 7.12502
rthumb 14.9748 -59.7304
lclavicle 2.25621e-014 -2.00276e-014
lhumerus -29.1567 -10.7897 90.622
lradius 25.2537
lwrist -13.5802
lhand -9.32515 -25.2112
lfingers 7.12502
lthumb 16.6334 4.0961
rfemur 9.95212 -4.26343 11.5609
rtibia 1.28921
rfoot -16.4728 -9.85066
rtoes 12.8322
lfemur 11.5382 -1.72551 -15.1207
ltibia -1.71763
lfoot -14.6219 19.0483
ltoes -5.23543
10
root -28.9491 17.2099 -0.44309 40.238 85.9037 38.563
lowerback 5.40342 1.80883 -4.32858
upperback 0.749208 2.15913 -0.665311
thorax -2.39002 1.12031 1.57892
lowerneck -23.5516 2.39951 2.79926
upperneck 25.8247 2.76474 -0.631741
head 12.5432 1.49754 -0.209456
rclavicle -1.41013e-014 2.10215e-014
rhumerus -34.8633 5.1692 -89.1037
rradius 34.2354
rwrist -0.181131
rhand -11.0052 -30.4936
rfingers 7.12502
rthumb 15.0155 -59.9291
lclavicle -1.41013e-014 2.10215e-014
lhumerus -29.1249 -10.7285 90.5728
lradius 24.9356
lwrist -14.3696
lhand -10.5968 -25.7404
lfingers 7.12502
lthumb 15.4089 3.66532
rfemur 10.4029 -4.26624 11.5073
rtibia 1.01056
rfoot -16.605 -10.1408
rtoes 13.2819
lfemur 11.5302 -1.51743 -15.0402
ltibia -1.48158
lfoot -14.3988 18.4305
ltoes -5.76687
11
root -28.9526 17.2068 -0.444047 36.4476 85.6327 34.65
lowerback 5.29347 1.91052 -4.36695
upperback 0.73211 2.29781 -0.619911
thorax -2.35793 1.18916 1.63939
lowerneck -23.6144 2.45268 2.88493
upperneck 25.8152 2.83099 -0.720958
head 12.5562 1.52181 -0.245702
rclavicle -3.06253e-014 2.68359e-014
rhumerus -34.8723 5.28039 -89.1264
rradius 34.2537
rwrist -0.204822
rhand -11.2669 -30.2812
rfingers 7.12502
rthumb 14.7633 -59.7355
lclavicle -3.06253e-014 2.68359e-014
lhumerus -29.1918 -10.6891 90.5355
lradius 24.1829
lwrist -16.7635
lhand -14.2597 -27.3485
lfingers 7.12502
lthumb 11.8787 2.29457
rfemur 10.0106 -4.2354 11.5575
rtibia 1.30066
rfoot -16.5733 -9.91639
rtoes 12.8398
lfemur 11.5203 -1.49082 -15.0324
ltibia -1.61427
lfoot -14.4584 18.7773
ltoes -5.74236
12
root -28.9555 17.2085 -0.448494 34.2307 85.4169 32.4061
lowerback 5.28671 1.98373 -4.33437
upperback 0.746512 2.39798 -0.61583
thorax -2.34431 1.23832 1.61811
lowerneck -23.644 2.48288 2.95881
upperneck 25.7641 2.87363 -0.826332
head 12.5457 1.53202 -0.290954
rclavicle -1.49399e-014 3.67752e-015
rhumerus -34.8693 5.31105 -89.1448
rradius 34.2827
rwrist -0.106945
rhand -11.603 -29.6955
rfingers 7.12502
rthumb 14.4395 -59.1732
lclavicle -1.49399e-014 3.67752e-015
lhumerus -29.1367 -10.7011 90.4972
lradius 24.1763
lwrist -16.5508
lhand -14.2148 -27.3399
lfingers 7.12502
lthumb 11.922 2.30065
rfemur 9.77653 -4.20784 11.5477
rtibia 1.5232
rfoot -16.5197 -9.73621
rtoes 12.5178
lfemur 11.5064 -1.25133 -14.9969
ltibia -1.57688
lfoot -14.5652 18.8273
ltoes -5.53717
13
root -28.9505 17.205 -0.445203 35.8798 85.5395 33.952
lowerback 5.15314 1.89881 -4.45277
upperback 0.726924 2.2854 -0.56295
thorax -2.28969 1.18245 1.75151
lowerneck -23.621 2.48913 2.89731
upperneck 25.7508 2.91234 -0.844738
head 12.5358 1.54037 -0.281269
rclavicle 1.80024e-014 -1.38652e-014
rhumerus -34.8891 5.40017 -89.1071
rradius 34.2305
rwrist -0.0587585
rhand -11.6691 -29.5304
rfingers 7.12502
rthumb 14.3759 -59.0126
lclavicle 1.80024e-014 -1.38652e-014
lhumerus -29.1906 -10.6076 90.5137
lradius 24.1714
lwrist -16.5007
lhand -14.0823 -27.2183
lfingers 7.12502
lthumb 12.0497 2.41476
rfemur 9.80121 -4.0118 11.6272
rtibia 1.37259
rfoot -16.601 -10.0953
rtoes 12.6138
lfemur 11.2702 -0.816546 -14.8259
ltibia -1.316
lfoot -14.5049 18.2666
ltoes -5.83642
